<svg xmlns="http://www.w3.org/2000/svg" viewBox="0 0 512 512" role="img" aria-label="KRIVA Logo">
  <g fill="none" fill-rule="evenodd">
    <circle cx="256" cy="256" r="171" fill="#4E8B14"/>
    <circle cx="256" cy="256" r="146" fill="#F4F5F7"/>
    <path d="M256 405C252 333 280 275 352 225 C332 288 299 346 256 405Z" fill="#4E8B14"/>
    <path d="M256 405C260 333 232 275 160 225 C180 288 213 346 256 405Z" fill="#4E8B14"/>
    <path d="M256 355 C252 281 236 246 179 206 C159 192 144 173 145 146 C175 182 208 198 238 224 C265 247 273 281 256 355Z" fill="#4E8B14"/>
    <path d="M256 355 C260 281 276 246 333 206 C353 192 368 173 367 146 C337 182 304 198 274 224 C247 247 239 281 256 355Z" fill="#4E8B14"/>
    <path d="M253 405 C262 389 279 379 306 370 C346 357 377 338 396 307 C379 356 342 390 292 406 C272 412 258 421 251 434 C250 421 250 411 253 405Z" fill="#4E8B14"/>
  </g>
</svg>
